<?xml version="1.0" encoding="UTF-8"?>
<!DOCTYPE svg PUBLIC "-//W3C//DTD SVG 1.1//EN" "http://www.w3.org/Graphics/SVG/1.1/DTD/svg11.dtd">
<svg xmlns="http://www.w3.org/2000/svg" version="1.1" width="331px" height="387px" style="shape-rendering:geometricPrecision; text-rendering:geometricPrecision; image-rendering:optimizeQuality; fill-rule:evenodd; clip-rule:evenodd" xmlns:xlink="http://www.w3.org/1999/xlink">
<g><path style="opacity:0.971" fill="#fd6ed6" d="M 224.5,33.5 C 211.648,36.7664 198.314,38.0997 184.5,37.5C 179.723,34.9403 175.056,32.107 170.5,29C 168.722,28.296 166.888,27.796 165,27.5C 155.541,33.0982 145.708,38.0982 135.5,42.5C 125.577,41.6913 115.577,41.1913 105.5,41C 101.689,41.0835 98.3554,40.2501 95.5,38.5C 113.558,27.2933 131.891,16.2933 150.5,5.5C 159.64,2.88599 168.807,2.88599 178,5.5C 193.709,14.7565 209.209,24.0899 224.5,33.5 Z"/></g>
<g><path style="opacity:1" fill="#021111" d="M 184.5,37.5 C 187.456,39.9845 190.79,41.9845 194.5,43.5C 196.862,45.2435 199.195,47.0768 201.5,49C 203.154,49.6077 204.821,50.1077 206.5,50.5C 206.953,51.4584 207.619,52.2917 208.5,53C 211.876,54.0498 214.876,55.5498 217.5,57.5C 220.159,59.1635 222.825,60.8302 225.5,62.5C 238.856,71.2913 252.522,79.6246 266.5,87.5C 268.5,88.8333 270.5,90.1667 272.5,91.5C 276.132,93.4946 279.799,95.4946 283.5,97.5C 285.629,99.9501 288.296,101.617 291.5,102.5C 294.205,104.512 296.872,106.512 299.5,108.5C 300.462,127.133 300.795,145.799 300.5,164.5C 299.668,188.663 299.168,212.997 299,237.5C 298.392,235.934 297.558,234.6 296.5,233.5C 291.835,225.501 287.168,217.501 282.5,209.5C 277.985,202.633 273.651,195.633 269.5,188.5C 268.012,185.338 266.345,182.338 264.5,179.5C 262.748,176.328 260.748,173.328 258.5,170.5C 257.525,168.205 256.192,166.205 254.5,164.5C 253.277,160.385 251.277,156.718 248.5,153.5C 244.576,146.729 240.409,140.063 236,133.5C 235.187,131.564 234.687,129.564 234.5,127.5C 233.5,127.5 232.5,127.5 231.5,127.5C 231.481,129.06 231.148,130.56 230.5,132C 221.323,146.053 212.656,160.553 204.5,175.5C 204.942,176.739 205.609,177.739 206.5,178.5C 210.465,186.08 214.799,193.413 219.5,200.5C 219.5,201.5 219.5,202.5 219.5,203.5C 218.737,204.268 217.737,204.768 216.5,205C 212.514,205.499 208.514,205.666 204.5,205.5C 201.414,200.995 198.58,196.328 196,191.5C 193.049,194.834 190.549,198.5 188.5,202.5C 184.649,203.029 181.149,202.362 178,200.5C 177.667,200.833 177.333,201.167 177,201.5C 176.517,200.552 176.351,199.552 176.5,198.5C 177.401,197.71 178.068,196.71 178.5,195.5C 189.693,176.217 200.693,156.883 211.5,137.5C 214.807,131.868 218.141,126.201 221.5,120.5C 223.371,117.766 224.371,114.766 224.5,111.5C 206.484,111.393 188.484,111.893 170.5,113C 167.976,114.883 166.642,117.383 166.5,120.5C 162.666,125.498 159.332,130.832 156.5,136.5C 149.704,146.946 143.371,157.613 137.5,168.5C 134.437,172.569 131.77,176.902 129.5,181.5C 127.773,184.602 125.773,187.602 123.5,190.5C 121.193,190.014 119.027,190.014 117,190.5C 115.745,189.789 114.579,188.956 113.5,188C 114.464,186.275 115.131,184.441 115.5,182.5C 116.338,182.158 116.672,181.492 116.5,180.5C 129.164,159.312 142.164,138.478 155.5,118C 156.609,115.953 157.276,113.787 157.5,111.5C 144.496,111.333 131.496,111.5 118.5,112C 113.441,113.799 108.441,115.799 103.5,118C 100,121.5 96.5,125 93,128.5C 87.3468,137.978 81.5135,147.311 75.5,156.5C 73.8998,158.703 72.5665,161.036 71.5,163.5C 70.8333,163.833 70.1667,164.167 69.5,164.5C 69.9561,160.881 68.4561,158.548 65,157.5C 65.2273,155.426 65.0606,153.426 64.5,151.5C 62.5,150.833 60.5,150.167 58.5,149.5C 58.5159,146.524 58.6826,143.524 59,140.5C 57.6811,138.513 55.8477,137.346 53.5,137C 52.8333,135.667 52.1667,134.333 51.5,133C 52.0158,126.729 52.0158,120.563 51.5,114.5C 50.5749,108.755 48.9083,103.255 46.5,98C 47.2524,97.3292 47.5858,96.4959 47.5,95.5C 52.3629,92.7242 57.0296,89.7242 61.5,86.5C 62.7095,86.0679 63.7095,85.4013 64.5,84.5C 67.6486,83.0925 70.6486,81.4259 73.5,79.5C 84.9365,72.6096 96.6032,65.9429 108.5,59.5C 111.398,57.2267 114.398,55.2267 117.5,53.5C 119.179,53.7148 120.179,53.0481 120.5,51.5C 122.179,51.1077 123.846,50.6077 125.5,50C 129.1,47.7166 132.434,45.2166 135.5,42.5C 145.708,38.0982 155.541,33.0982 165,27.5C 166.888,27.796 168.722,28.296 170.5,29C 175.056,32.107 179.723,34.9403 184.5,37.5 Z"/></g>
<g><path style="opacity:0.976" fill="#fe80dc" d="M 224.5,33.5 C 228.323,36.159 232.323,38.4924 236.5,40.5C 236.389,41.1174 236.056,41.6174 235.5,42C 223.626,42.2955 211.793,43.1289 200,44.5C 198.122,44.3038 196.288,43.9705 194.5,43.5C 190.79,41.9845 187.456,39.9845 184.5,37.5C 198.314,38.0997 211.648,36.7664 224.5,33.5 Z"/></g>
<g><path style="opacity:0.979" fill="#fd8cdd" d="M 95.5,38.5 C 98.3554,40.2501 101.689,41.0835 105.5,41C 115.577,41.1913 125.577,41.6913 135.5,42.5C 132.434,45.2166 129.1,47.7166 125.5,50C 123.846,50.6077 122.179,51.1077 120.5,51.5C 106.899,51.4401 93.5658,50.1068 80.5,47.5C 85.258,44.2796 90.258,41.2796 95.5,38.5 Z"/></g>
<g><path style="opacity:0.963" fill="#fb96de" d="M 236.5,40.5 C 240.803,42.8194 244.803,45.4861 248.5,48.5C 240.221,48.6612 232.054,48.6612 224,48.5C 218.168,49.1874 212.335,49.854 206.5,50.5C 204.821,50.1077 203.154,49.6077 201.5,49C 199.195,47.0768 196.862,45.2435 194.5,43.5C 196.288,43.9705 198.122,44.3038 200,44.5C 211.793,43.1289 223.626,42.2955 235.5,42C 236.056,41.6174 236.389,41.1174 236.5,40.5 Z"/></g>
<g><path style="opacity:1" fill="#fcb0e5" d="M 80.5,47.5 C 93.5658,50.1068 106.899,51.4401 120.5,51.5C 120.179,53.0481 119.179,53.7148 117.5,53.5C 104.737,53.6903 92.07,52.6903 79.5,50.5C 78.2867,50.2528 77.62,49.5862 77.5,48.5C 78.391,47.8902 79.391,47.5569 80.5,47.5 Z"/></g>
<g><path style="opacity:0.978" fill="#fbb0e4" d="M 248.5,48.5 C 252.651,50.2975 256.318,52.6309 259.5,55.5C 245.163,55.3334 230.829,55.5001 216.5,56C 217.056,56.3826 217.389,56.8826 217.5,57.5C 214.876,55.5498 211.876,54.0498 208.5,53C 207.619,52.2917 206.953,51.4584 206.5,50.5C 212.335,49.854 218.168,49.1874 224,48.5C 232.054,48.6612 240.221,48.6612 248.5,48.5 Z"/></g>
<g><path style="opacity:1" fill="#fac2e7" d="M 77.5,48.5 C 77.62,49.5862 78.2867,50.2528 79.5,50.5C 92.07,52.6903 104.737,53.6903 117.5,53.5C 114.398,55.2267 111.398,57.2267 108.5,59.5C 107.319,57.9328 105.653,57.0995 103.5,57C 92.6329,55.8107 81.9663,54.3107 71.5,52.5C 73.2048,50.8079 75.2048,49.4746 77.5,48.5 Z"/></g>
<g><path style="opacity:0.965" fill="#fcc5ea" d="M 259.5,55.5 C 263.505,56.4977 266.839,58.4977 269.5,61.5C 254.75,61.332 240.083,61.6653 225.5,62.5C 222.825,60.8302 220.159,59.1635 217.5,57.5C 217.389,56.8826 217.056,56.3826 216.5,56C 230.829,55.5001 245.163,55.3334 259.5,55.5 Z"/></g>
<g><path style="opacity:0.983" fill="#fadcef" d="M 71.5,52.5 C 81.9663,54.3107 92.6329,55.8107 103.5,57C 105.653,57.0995 107.319,57.9328 108.5,59.5C 96.6032,65.9429 84.9365,72.6096 73.5,79.5C 61.4927,78.1102 49.4927,76.6102 37.5,75C 36.944,74.6174 36.6107,74.1174 36.5,73.5C 47.5603,65.8336 59.227,58.8336 71.5,52.5 Z"/></g>
<g><path style="opacity:1" fill="#fad6ec" d="M 269.5,61.5 C 270.93,61.4208 272.264,61.7542 273.5,62.5C 284.178,69.1844 294.845,75.8511 305.5,82.5C 305.423,83.7498 304.756,84.5831 303.5,85C 291.154,85.739 278.821,86.5723 266.5,87.5C 252.522,79.6246 238.856,71.2913 225.5,62.5C 240.083,61.6653 254.75,61.332 269.5,61.5 Z"/></g>
<g><path style="opacity:1" fill="#fdbbe7" d="M 36.5,73.5 C 36.6107,74.1174 36.944,74.6174 37.5,75C 49.4927,76.6102 61.4927,78.1102 73.5,79.5C 70.6486,81.4259 67.6486,83.0925 64.5,84.5C 63.3998,83.4415 62.0664,82.6082 60.5,82C 52.4745,80.8301 44.4745,79.4967 36.5,78C 34.867,77.5204 33.5336,76.6871 32.5,75.5C 33.5137,74.3263 34.847,73.6596 36.5,73.5 Z"/></g>
<g><path style="opacity:1" fill="#fc9ee1" d="M 32.5,75.5 C 33.5336,76.6871 34.867,77.5204 36.5,78C 44.4745,79.4967 52.4745,80.8301 60.5,82C 62.0664,82.6082 63.3998,83.4415 64.5,84.5C 63.7095,85.4013 62.7095,86.0679 61.5,86.5C 49.4082,85.0382 37.4082,82.7049 25.5,79.5C 27.6626,77.9172 29.9959,76.5839 32.5,75.5 Z"/></g>
<g><path style="opacity:0.994" fill="#fc6bd2" d="M 25.5,79.5 C 37.4082,82.7049 49.4082,85.0382 61.5,86.5C 57.0296,89.7242 52.3629,92.7242 47.5,95.5C 42.7478,98.1362 38.0812,100.97 33.5,104C 30.6822,106.364 28.6822,109.197 27.5,112.5C 26.5045,125.323 26.1712,138.323 26.5,151.5C 18.5265,152.071 10.8599,153.071 3.5,154.5C 3.5,137.5 3.5,120.5 3.5,103.5C 4.45837,103.047 5.2917,102.381 6,101.5C 6.3949,98.348 7.22823,95.348 8.5,92.5C 11.144,91.8561 12.8106,90.1894 13.5,87.5C 16.8591,83.9275 20.8591,81.2609 25.5,79.5 Z"/></g>
<g><path style="opacity:1" fill="#fdb6e7" d="M 305.5,82.5 C 309.202,83.8559 312.535,85.8559 315.5,88.5C 312.645,90.2501 309.311,91.0835 305.5,91C 294.505,91.4998 283.505,91.6665 272.5,91.5C 270.5,90.1667 268.5,88.8333 266.5,87.5C 278.821,86.5723 291.154,85.739 303.5,85C 304.756,84.5831 305.423,83.7498 305.5,82.5 Z"/></g>
<g><path style="opacity:0.337" fill="#6d365d" d="M 13.5,87.5 C 12.8106,90.1894 11.144,91.8561 8.5,92.5C 9.0819,91.0689 9.91523,89.7356 11,88.5C 11.6708,87.7476 12.5041,87.4142 13.5,87.5 Z"/></g>
<g><path style="opacity:0.987" fill="#f496d8" d="M 315.5,88.5 C 318.543,90.1757 320.877,92.5091 322.5,95.5C 319.184,94.5985 315.184,93.9319 310.5,93.5C 301.832,93.9805 293.166,94.4805 284.5,95C 282.381,95.3418 282.047,96.1751 283.5,97.5C 279.799,95.4946 276.132,93.4946 272.5,91.5C 283.505,91.6665 294.505,91.4998 305.5,91C 309.311,91.0835 312.645,90.2501 315.5,88.5 Z"/></g>
<g><path style="opacity:1" fill="#fb81d9" d="M 322.5,95.5 C 322.5,95.8333 322.5,96.1667 322.5,96.5C 312.543,98.3664 302.21,99.5331 291.5,100C 290.402,100.77 290.402,101.603 291.5,102.5C 288.296,101.617 285.629,99.9501 283.5,97.5C 282.047,96.1751 282.381,95.3418 284.5,95C 293.166,94.4805 301.832,93.9805 310.5,93.5C 315.184,93.9319 319.184,94.5985 322.5,95.5 Z"/></g>
<g><path style="opacity:1" fill="#011115" d="M 47.5,95.5 C 47.5858,96.4959 47.2524,97.3292 46.5,98C 48.9083,103.255 50.5749,108.755 51.5,114.5C 52.0158,120.563 52.0158,126.729 51.5,133C 52.1667,134.333 52.8333,135.667 53.5,137C 55.8477,137.346 57.6811,138.513 59,140.5C 58.6826,143.524 58.5159,146.524 58.5,149.5C 60.5,150.167 62.5,150.833 64.5,151.5C 65.0606,153.426 65.2273,155.426 65,157.5C 68.4561,158.548 69.9561,160.881 69.5,164.5C 69.3404,166.153 68.6737,167.486 67.5,168.5C 65.5655,171.371 63.8988,174.371 62.5,177.5C 60.8179,180.177 59.1513,182.843 57.5,185.5C 54.3082,189.526 51.3082,193.692 48.5,198C 47.6805,199.8 47.0138,201.634 46.5,203.5C 45.6236,203.369 44.9569,203.702 44.5,204.5C 39.5009,213.142 34.1675,221.475 28.5,229.5C 28.5,229.167 28.5,228.833 28.5,228.5C 27.5495,189.847 27.2162,151.18 27.5,112.5C 28.6822,109.197 30.6822,106.364 33.5,104C 38.0812,100.97 42.7478,98.1362 47.5,95.5 Z"/></g>
<g><path style="opacity:0.922" fill="#a44889" d="M 8.5,92.5 C 7.22823,95.348 6.3949,98.348 6,101.5C 5.2917,102.381 4.45837,103.047 3.5,103.5C 3.52988,98.9776 5.19655,95.3109 8.5,92.5 Z"/></g>
<g><path style="opacity:0.975" fill="#fc69d1" d="M 322.5,96.5 C 323.931,96.8807 324.764,97.8807 325,99.5C 325.884,103.113 326.384,106.78 326.5,110.5C 326.498,125.525 326.498,140.525 326.5,155.5C 324.345,156.537 322.012,157.203 319.5,157.5C 313.854,156.779 308.187,156.446 302.5,156.5C 302.768,154.901 302.434,153.568 301.5,152.5C 301.186,139.783 301.519,127.117 302.5,114.5C 301.864,112.22 300.864,110.22 299.5,108.5C 296.872,106.512 294.205,104.512 291.5,102.5C 290.402,101.603 290.402,100.77 291.5,100C 302.21,99.5331 312.543,98.3664 322.5,96.5 Z"/></g>
<g><path style="opacity:1" fill="#c0c1c3" d="M 211.5,137.5 C 212.974,134.673 212.64,132.173 210.5,130C 211.5,129.667 212.5,129.333 213.5,129C 211.416,127.229 209.082,125.896 206.5,125C 199.448,122.918 192.448,121.752 185.5,121.5C 180.153,120.664 174.82,119.664 169.5,118.5C 168.261,118.942 167.261,119.609 166.5,120.5C 166.642,117.383 167.976,114.883 170.5,113C 188.484,111.893 206.484,111.393 224.5,111.5C 224.371,114.766 223.371,117.766 221.5,120.5C 218.141,126.201 214.807,131.868 211.5,137.5 Z"/></g>
<g><path style="opacity:1" fill="#312034" d="M 299.5,108.5 C 300.864,110.22 301.864,112.22 302.5,114.5C 301.519,127.117 301.186,139.783 301.5,152.5C 301.5,156.167 301.5,159.833 301.5,163.5C 301.5,163.833 301.5,164.167 301.5,164.5C 301.167,164.5 300.833,164.5 300.5,164.5C 300.795,145.799 300.462,127.133 299.5,108.5 Z"/></g>
<g><path style="opacity:1" fill="#dcdddf" d="M 116.5,180.5 C 106.845,179.447 97.8453,176.28 89.5,171C 84.4888,167.333 79.4888,163.666 74.5,160C 75.3366,158.989 75.67,157.822 75.5,156.5C 81.5135,147.311 87.3468,137.978 93,128.5C 96.5,125 100,121.5 103.5,118C 108.441,115.799 113.441,113.799 118.5,112C 131.496,111.5 144.496,111.333 157.5,111.5C 157.276,113.787 156.609,115.953 155.5,118C 142.164,138.478 129.164,159.312 116.5,180.5 Z"/></g>
<g><path style="opacity:1" fill="#d5d6d8" d="M 211.5,137.5 C 200.693,156.883 189.693,176.217 178.5,195.5C 171.472,198.91 164.139,199.41 156.5,197C 148.758,194.531 141.092,191.864 133.5,189C 131.619,187.898 129.952,186.565 128.5,185C 128.989,183.862 129.322,182.695 129.5,181.5C 131.77,176.902 134.437,172.569 137.5,168.5C 137.354,170.942 138.187,171.609 140,170.5C 140.5,171 141,171.5 141.5,172C 154.27,175.933 166.937,175.933 179.5,172C 182.823,169.676 185.823,167.009 188.5,164C 188.043,163.586 187.709,163.086 187.5,162.5C 189.444,160.72 190.777,158.553 191.5,156C 189.646,154.71 189.313,153.21 190.5,151.5C 189.687,150.186 188.687,149.019 187.5,148C 187.957,147.586 188.291,147.086 188.5,146.5C 185.379,144.273 182.046,142.606 178.5,141.5C 178.649,140.448 178.483,139.448 178,138.5C 174.782,140.103 171.949,139.603 169.5,137C 166.168,136.751 163.001,135.918 160,134.5C 158.697,134.978 157.531,135.645 156.5,136.5C 159.332,130.832 162.666,125.498 166.5,120.5C 167.261,119.609 168.261,118.942 169.5,118.5C 174.82,119.664 180.153,120.664 185.5,121.5C 192.448,121.752 199.448,122.918 206.5,125C 209.082,125.896 211.416,127.229 213.5,129C 212.5,129.333 211.5,129.667 210.5,130C 212.64,132.173 212.974,134.673 211.5,137.5 Z"/></g>
<g><path style="opacity:1" fill="#dfe1e3" d="M 137.5,168.5 C 143.371,157.613 149.704,146.946 156.5,136.5C 157.531,135.645 158.697,134.978 160,134.5C 163.001,135.918 166.168,136.751 169.5,137C 171.949,139.603 174.782,140.103 178,138.5C 178.483,139.448 178.649,140.448 178.5,141.5C 182.046,142.606 185.379,144.273 188.5,146.5C 188.291,147.086 187.957,147.586 187.5,148C 188.687,149.019 189.687,150.186 190.5,151.5C 189.313,153.21 189.646,154.71 191.5,156C 190.777,158.553 189.444,160.72 187.5,162.5C 187.709,163.086 188.043,163.586 188.5,164C 185.823,167.009 182.823,169.676 179.5,172C 166.937,175.933 154.27,175.933 141.5,172C 141,171.5 140.5,171 140,170.5C 138.187,171.609 137.354,170.942 137.5,168.5 Z"/></g>
<g><path style="opacity:1" fill="#3f689f" d="M 248.5,153.5 C 242.154,148.35 235.487,148.184 228.5,153C 224.367,156.131 220.534,159.631 217,163.5C 221.334,155.191 228.168,149.691 237.5,147C 236.234,146.691 235.067,146.191 234,145.5C 224.102,149.521 216.936,156.355 212.5,166C 212.535,169.219 210.869,171.719 207.5,173.5C 206.548,175.045 206.215,176.712 206.5,178.5C 205.609,177.739 204.942,176.739 204.5,175.5C 212.656,160.553 221.323,146.053 230.5,132C 231.148,130.56 231.481,129.06 231.5,127.5C 232.5,127.5 233.5,127.5 234.5,127.5C 234.687,129.564 235.187,131.564 236,133.5C 240.409,140.063 244.576,146.729 248.5,153.5 Z"/></g>
<g><path style="opacity:0.005" fill="#020506" d="M 3.5,156.5 C 3.5,160.833 3.5,165.167 3.5,169.5C 3.5,173.167 3.5,176.833 3.5,180.5C 3.5,187.5 3.5,194.5 3.5,201.5C 3.5,213.167 3.5,224.833 3.5,236.5C 2.40961,229.523 1.74295,222.357 1.5,215C 2.05434,195.336 2.72101,175.836 3.5,156.5 Z"/></g>
<g><path style="opacity:1" fill="#4f7bb7" d="M 248.5,153.5 C 251.277,156.718 253.277,160.385 254.5,164.5C 254.201,168.105 253.035,171.439 251,174.5C 243.278,185.228 234.444,195.061 224.5,204C 223.365,204.749 222.365,204.583 221.5,203.5C 221.058,202.261 220.391,201.261 219.5,200.5C 214.799,193.413 210.465,186.08 206.5,178.5C 206.215,176.712 206.548,175.045 207.5,173.5C 210.869,171.719 212.535,169.219 212.5,166C 216.936,156.355 224.102,149.521 234,145.5C 235.067,146.191 236.234,146.691 237.5,147C 228.168,149.691 221.334,155.191 217,163.5C 220.534,159.631 224.367,156.131 228.5,153C 235.487,148.184 242.154,148.35 248.5,153.5 Z"/></g>
<g><path style="opacity:1" fill="#cf459f" d="M 301.5,152.5 C 302.434,153.568 302.768,154.901 302.5,156.5C 308.187,156.446 313.854,156.779 319.5,157.5C 322.012,157.203 324.345,156.537 326.5,155.5C 326.5,159.833 326.5,164.167 326.5,168.5C 318.549,167.32 310.549,166.654 302.5,166.5C 302.737,165.209 302.404,164.209 301.5,163.5C 301.5,159.833 301.5,156.167 301.5,152.5 Z"/></g>
<g><path style="opacity:1" fill="#d648a5" d="M 26.5,151.5 C 26.5,156.833 26.5,162.167 26.5,167.5C 18.7638,167.45 11.0972,168.117 3.5,169.5C 3.5,165.167 3.5,160.833 3.5,156.5C 3.5,155.833 3.5,155.167 3.5,154.5C 10.8599,153.071 18.5265,152.071 26.5,151.5 Z"/></g>
<g><path style="opacity:1" fill="#b8b8ba" d="M 75.5,156.5 C 75.67,157.822 75.3366,158.989 74.5,160C 79.4888,163.666 84.4888,167.333 89.5,171C 97.8453,176.28 106.845,179.447 116.5,180.5C 116.672,181.492 116.338,182.158 115.5,182.5C 113.953,183.768 112.953,185.435 112.5,187.5C 111.244,187.904 110.077,188.571 109,189.5C 95.0399,183.704 82.2066,176.037 70.5,166.5C 71.1272,165.583 71.4606,164.583 71.5,163.5C 72.5665,161.036 73.8998,158.703 75.5,156.5 Z"/></g>
<g><path style="opacity:1" fill="#426ca3" d="M 254.5,164.5 C 256.192,166.205 257.525,168.205 258.5,170.5C 258.546,173.551 257.546,176.218 255.5,178.5C 255.931,179.293 256.265,180.127 256.5,181C 250.661,188.171 244.827,195.338 239,202.5C 234.944,204.547 231.444,207.381 228.5,211C 226.807,211.484 225.473,210.984 224.5,209.5C 222.988,207.404 221.322,205.404 219.5,203.5C 219.5,202.5 219.5,201.5 219.5,200.5C 220.391,201.261 221.058,202.261 221.5,203.5C 222.365,204.583 223.365,204.749 224.5,204C 234.444,195.061 243.278,185.228 251,174.5C 253.035,171.439 254.201,168.105 254.5,164.5 Z"/></g>
<g><path style="opacity:1" fill="#858687" d="M 67.5,168.5 C 67.1854,170.226 67.0187,171.893 67,173.5C 78.5695,182.622 91.2362,189.955 105,195.5C 105.902,195.257 106.735,194.923 107.5,194.5C 106.164,196.508 104.83,198.508 103.5,200.5C 102.849,201.091 102.182,201.757 101.5,202.5C 87.2803,195.901 74.2803,187.568 62.5,177.5C 63.8988,174.371 65.5655,171.371 67.5,168.5 Z"/></g>
<g><path style="opacity:0.989" fill="#b43287" d="M 26.5,167.5 C 26.5,171.5 26.5,175.5 26.5,179.5C 18.7911,179.269 11.1244,179.602 3.5,180.5C 3.5,176.833 3.5,173.167 3.5,169.5C 11.0972,168.117 18.7638,167.45 26.5,167.5 Z"/></g>
<g><path style="opacity:0.962" fill="#b23186" d="M 301.5,163.5 C 302.404,164.209 302.737,165.209 302.5,166.5C 310.549,166.654 318.549,167.32 326.5,168.5C 325.54,171.765 325.54,175.098 326.5,178.5C 325.834,181.028 325.168,183.694 324.5,186.5C 317.249,183.12 309.582,181.12 301.5,180.5C 301.5,175.167 301.5,169.833 301.5,164.5C 301.5,164.167 301.5,163.833 301.5,163.5 Z"/></g>
<g><path style="opacity:1" fill="#a1a2a3" d="M 71.5,163.5 C 71.4606,164.583 71.1272,165.583 70.5,166.5C 82.2066,176.037 95.0399,183.704 109,189.5C 110.077,188.571 111.244,187.904 112.5,187.5C 110.801,189.857 109.135,192.19 107.5,194.5C 106.735,194.923 105.902,195.257 105,195.5C 91.2362,189.955 78.5695,182.622 67,173.5C 67.0187,171.893 67.1854,170.226 67.5,168.5C 68.6737,167.486 69.3404,166.153 69.5,164.5C 70.1667,164.167 70.8333,163.833 71.5,163.5 Z"/></g>
<g><path style="opacity:1" fill="#666666" d="M 62.5,177.5 C 74.2803,187.568 87.2803,195.901 101.5,202.5C 102.182,201.757 102.849,201.091 103.5,200.5C 101.577,205.232 98.9107,209.566 95.5,213.5C 82.2832,206.304 69.7832,197.97 58,188.5C 57.5172,187.552 57.3505,186.552 57.5,185.5C 59.1513,182.843 60.8179,180.177 62.5,177.5 Z"/></g>
<g><path style="opacity:1" fill="#224777" d="M 264.5,179.5 C 266.345,182.338 268.012,185.338 269.5,188.5C 269.286,190.144 269.62,191.644 270.5,193C 259.073,204.593 247.406,216.093 235.5,227.5C 233.478,225.469 231.811,223.135 230.5,220.5C 242.782,210.384 253.948,199.051 264,186.5C 264.497,184.19 264.663,181.857 264.5,179.5 Z"/></g>
<g><path style="opacity:1" fill="#58224e" d="M 27.5,112.5 C 27.2162,151.18 27.5495,189.847 28.5,228.5C 26.5278,219.56 25.8611,210.227 26.5,200.5C 26.5,193.5 26.5,186.5 26.5,179.5C 26.5,175.5 26.5,171.5 26.5,167.5C 26.5,162.167 26.5,156.833 26.5,151.5C 26.1712,138.323 26.5045,125.323 27.5,112.5 Z"/></g>
<g><path style="opacity:1" fill="#325a8e" d="M 258.5,170.5 C 260.748,173.328 262.748,176.328 264.5,179.5C 264.663,181.857 264.497,184.19 264,186.5C 253.948,199.051 242.782,210.384 230.5,220.5C 227.759,217.311 225.759,213.644 224.5,209.5C 225.473,210.984 226.807,211.484 228.5,211C 231.444,207.381 234.944,204.547 239,202.5C 244.827,195.338 250.661,188.171 256.5,181C 256.265,180.127 255.931,179.293 255.5,178.5C 257.546,176.218 258.546,173.551 258.5,170.5 Z"/></g>
<g><path style="opacity:0.994" fill="#971f6f" d="M 300.5,164.5 C 300.833,164.5 301.167,164.5 301.5,164.5C 301.5,169.833 301.5,175.167 301.5,180.5C 309.582,181.12 317.249,183.12 324.5,186.5C 325.168,183.694 325.834,181.028 326.5,178.5C 325.625,208.141 325.292,237.807 325.5,267.5C 324.778,267.082 324.278,266.416 324,265.5C 323.107,266.711 322.274,266.711 321.5,265.5C 320.333,263.167 319.167,260.833 318,258.5C 317.333,251.5 317.333,244.5 318,237.5C 319.461,235.706 319.628,233.706 318.5,231.5C 318.974,225.055 319.974,218.888 321.5,213C 319.916,208.234 317.583,203.9 314.5,200C 310.077,197.616 305.411,196.116 300.5,195.5C 300.5,185.167 300.5,174.833 300.5,164.5 Z"/></g>
<g><path style="opacity:1" fill="#4f4f4f" d="M 57.5,185.5 C 57.3505,186.552 57.5172,187.552 58,188.5C 69.7832,197.97 82.2832,206.304 95.5,213.5C 93.5666,218.324 90.8999,222.657 87.5,226.5C 74.4297,221.131 62.4297,213.965 51.5,205C 49.804,203.795 48.1373,203.295 46.5,203.5C 47.0138,201.634 47.6805,199.8 48.5,198C 51.3082,193.692 54.3082,189.526 57.5,185.5 Z"/></g>
<g><path style="opacity:1" fill="#b2b3b5" d="M 129.5,181.5 C 129.322,182.695 128.989,183.862 128.5,185C 129.952,186.565 131.619,187.898 133.5,189C 141.092,191.864 148.758,194.531 156.5,197C 164.139,199.41 171.472,198.91 178.5,195.5C 178.068,196.71 177.401,197.71 176.5,198.5C 174.928,202.641 172.595,206.308 169.5,209.5C 165.3,212.01 161.133,212.01 157,209.5C 156.667,209.833 156.333,210.167 156,210.5C 144.831,206.324 133.664,202.324 122.5,198.5C 122.5,197.167 122.5,195.833 122.5,194.5C 122.433,193.041 122.766,191.708 123.5,190.5C 125.773,187.602 127.773,184.602 129.5,181.5 Z"/></g>
<g><path style="opacity:0.989" fill="#8d1966" d="M 26.5,179.5 C 26.5,186.5 26.5,193.5 26.5,200.5C 20.3559,200.178 14.3559,200.844 8.5,202.5C 6.74218,202.408 5.07551,202.075 3.5,201.5C 3.5,194.5 3.5,187.5 3.5,180.5C 11.1244,179.602 18.7911,179.269 26.5,179.5 Z"/></g>
<g><path style="opacity:1" fill="#06191b" d="M 115.5,182.5 C 115.131,184.441 114.464,186.275 113.5,188C 114.579,188.956 115.745,189.789 117,190.5C 119.027,190.014 121.193,190.014 123.5,190.5C 122.766,191.708 122.433,193.041 122.5,194.5C 120.674,196.147 119.34,198.147 118.5,200.5C 116.463,202.884 114.796,205.551 113.5,208.5C 110.745,212.255 108.411,216.255 106.5,220.5C 104.654,222.03 103.654,224.03 103.5,226.5C 100.783,229.566 98.2834,232.9 96,236.5C 89.943,248.277 83.1097,259.61 75.5,270.5C 74.7542,271.736 74.4208,273.07 74.5,274.5C 73.407,276.349 72.0737,278.016 70.5,279.5C 66.8751,278.671 63.2084,277.838 59.5,277C 58.7476,276.329 58.4142,275.496 58.5,274.5C 62.6353,268.382 66.3019,262.049 69.5,255.5C 75.8538,246.191 81.8538,236.525 87.5,226.5C 90.8999,222.657 93.5666,218.324 95.5,213.5C 98.9107,209.566 101.577,205.232 103.5,200.5C 104.83,198.508 106.164,196.508 107.5,194.5C 109.135,192.19 110.801,189.857 112.5,187.5C 112.953,185.435 113.953,183.768 115.5,182.5 Z"/></g>
<g><path style="opacity:1" fill="#969798" d="M 122.5,194.5 C 122.5,195.833 122.5,197.167 122.5,198.5C 133.664,202.324 144.831,206.324 156,210.5C 156.333,210.167 156.667,209.833 157,209.5C 161.133,212.01 165.3,212.01 169.5,209.5C 169.072,213.244 167.405,216.244 164.5,218.5C 162.733,219.256 160.9,219.923 159,220.5C 144.575,216.388 130.742,210.888 117.5,204C 118.337,202.989 118.67,201.822 118.5,200.5C 119.34,198.147 120.674,196.147 122.5,194.5 Z"/></g>
<g><path style="opacity:1" fill="#464647" d="M 46.5,203.5 C 48.1373,203.295 49.804,203.795 51.5,205C 62.4297,213.965 74.4297,221.131 87.5,226.5C 81.8538,236.525 75.8538,246.191 69.5,255.5C 56.6557,247.438 42.989,241.105 28.5,236.5C 26.8857,236.803 25.5523,237.47 24.5,238.5C 26.0978,235.737 27.4311,232.737 28.5,229.5C 34.1675,221.475 39.5009,213.142 44.5,204.5C 44.9569,203.702 45.6236,203.369 46.5,203.5 Z"/></g>
<g><path style="opacity:0.994" fill="#861360" d="M 300.5,195.5 C 305.411,196.116 310.077,197.616 314.5,200C 317.583,203.9 319.916,208.234 321.5,213C 319.974,218.888 318.974,225.055 318.5,231.5C 319.628,233.706 319.461,235.706 318,237.5C 317.333,244.5 317.333,251.5 318,258.5C 319.167,260.833 320.333,263.167 321.5,265.5C 322.274,266.711 323.107,266.711 324,265.5C 324.278,266.416 324.778,267.082 325.5,267.5C 325.5,271.833 325.5,276.167 325.5,280.5C 324.057,281.335 323.057,282.668 322.5,284.5C 317.168,280.665 312.335,276.332 308,271.5C 307.667,271.833 307.333,272.167 307,272.5C 306.581,271.328 305.915,270.328 305,269.5C 304.437,259.798 303.27,250.465 301.5,241.5C 300.531,226.215 300.198,210.881 300.5,195.5 Z"/></g>
<g><path style="opacity:1" fill="#7e7e7f" d="M 118.5,200.5 C 118.67,201.822 118.337,202.989 117.5,204C 130.742,210.888 144.575,216.388 159,220.5C 160.9,219.923 162.733,219.256 164.5,218.5C 162.92,221.332 161.587,224.332 160.5,227.5C 158.731,228.421 157.065,229.588 155.5,231C 154.167,231.667 152.833,231.667 151.5,231C 139.562,225.031 127.562,219.031 115.5,213C 113.963,211.89 113.297,210.39 113.5,208.5C 114.796,205.551 116.463,202.884 118.5,200.5 Z"/></g>
<g><path style="opacity:1" fill="#03171a" d="M 176.5,198.5 C 176.351,199.552 176.517,200.552 177,201.5C 177.333,201.167 177.667,200.833 178,200.5C 181.149,202.362 184.649,203.029 188.5,202.5C 180.503,215.829 172.503,229.163 164.5,242.5C 163.475,243.374 162.808,244.541 162.5,246C 165.235,249.972 167.568,254.139 169.5,258.5C 172.515,262.548 175.515,266.548 178.5,270.5C 178.654,272.97 179.654,274.97 181.5,276.5C 181.5,276.833 181.5,277.167 181.5,277.5C 181.44,278.043 181.107,278.376 180.5,278.5C 174.551,277.708 168.551,277.208 162.5,277C 153.779,275.397 145.112,273.564 136.5,271.5C 136.5,270.5 136.5,269.5 136.5,268.5C 139.85,262.157 143.183,255.824 146.5,249.5C 149.853,246.132 152.186,242.132 153.5,237.5C 155.477,233.858 157.811,230.525 160.5,227.5C 161.587,224.332 162.92,221.332 164.5,218.5C 167.405,216.244 169.072,213.244 169.5,209.5C 172.595,206.308 174.928,202.641 176.5,198.5 Z"/></g>
<g><path style="opacity:1" fill="#4b76b0" d="M 204.5,205.5 C 206.901,209.542 209.234,213.542 211.5,217.5C 212.545,220.114 213.045,222.78 213,225.5C 207.48,231.685 201.313,237.185 194.5,242C 189.27,242.93 184.27,244.596 179.5,247C 174.552,248.05 169.552,248.55 164.5,248.5C 164.5,246.5 164.5,244.5 164.5,242.5C 172.503,229.163 180.503,215.829 188.5,202.5C 190.549,198.5 193.049,194.834 196,191.5C 198.58,196.328 201.414,200.995 204.5,205.5 Z"/></g>
<g><path style="opacity:1" fill="#0e2e56" d="M 269.5,188.5 C 273.651,195.633 277.985,202.633 282.5,209.5C 282.67,210.822 282.337,211.989 281.5,213C 269.517,221.541 257.85,230.374 246.5,239.5C 244.801,240.815 243.135,240.815 241.5,239.5C 239.092,235.743 237.092,231.743 235.5,227.5C 247.406,216.093 259.073,204.593 270.5,193C 269.62,191.644 269.286,190.144 269.5,188.5 Z"/></g>
<g><path style="opacity:1" fill="#03171a" d="M 219.5,203.5 C 221.322,205.404 222.988,207.404 224.5,209.5C 225.759,213.644 227.759,217.311 230.5,220.5C 231.811,223.135 233.478,225.469 235.5,227.5C 237.092,231.743 239.092,235.743 241.5,239.5C 245.016,246.705 249.016,253.705 253.5,260.5C 255.844,265.146 258.51,269.479 261.5,273.5C 264.172,278.534 266.839,283.534 269.5,288.5C 270.345,289.671 271.011,291.005 271.5,292.5C 268.409,294.576 265.076,296.243 261.5,297.5C 260.883,297.611 260.383,297.944 260,298.5C 259.338,297.016 258.504,295.683 257.5,294.5C 257.25,292.326 256.25,290.659 254.5,289.5C 253.528,286.868 252.195,284.535 250.5,282.5C 246.964,277.423 243.964,272.09 241.5,266.5C 237.522,260.181 233.522,253.848 229.5,247.5C 227.687,244.072 225.687,240.739 223.5,237.5C 221.384,232.793 218.717,228.459 215.5,224.5C 214.528,221.868 213.195,219.535 211.5,217.5C 209.234,213.542 206.901,209.542 204.5,205.5C 208.514,205.666 212.514,205.499 216.5,205C 217.737,204.768 218.737,204.268 219.5,203.5 Z"/></g>
<g><path style="opacity:1" fill="#656666" d="M 113.5,208.5 C 113.297,210.39 113.963,211.89 115.5,213C 127.562,219.031 139.562,225.031 151.5,231C 152.833,231.667 154.167,231.667 155.5,231C 157.065,229.588 158.731,228.421 160.5,227.5C 157.811,230.525 155.477,233.858 153.5,237.5C 152.5,237.5 151.5,237.5 150.5,237.5C 150.5,239.167 150.5,240.833 150.5,242.5C 148.801,242.62 147.135,242.954 145.5,243.5C 132.314,236.076 119.314,228.41 106.5,220.5C 108.411,216.255 110.745,212.255 113.5,208.5 Z"/></g>
<g><path style="opacity:1" fill="#061e3c" d="M 282.5,209.5 C 287.168,217.501 291.835,225.501 296.5,233.5C 294.504,233.987 292.171,234.82 289.5,236C 289.833,236.333 290.167,236.667 290.5,237C 287.681,237.068 285.514,238.234 284,240.5C 275.506,241.823 268.339,245.99 262.5,253C 262.833,253.333 263.167,253.667 263.5,254C 260.284,256.39 256.95,258.556 253.5,260.5C 249.016,253.705 245.016,246.705 241.5,239.5C 243.135,240.815 244.801,240.815 246.5,239.5C 257.85,230.374 269.517,221.541 281.5,213C 282.337,211.989 282.67,210.822 282.5,209.5 Z"/></g>
<g><path style="opacity:0.999" fill="#760953" d="M 26.5,200.5 C 25.8611,210.227 26.5278,219.56 28.5,228.5C 28.5,228.833 28.5,229.167 28.5,229.5C 27.4311,232.737 26.0978,235.737 24.5,238.5C 19.4776,243.896 15.4776,249.896 12.5,256.5C 10.4453,258.896 8.77865,261.562 7.5,264.5C 6.5275,266.139 5.19416,267.473 3.5,268.5C 3.60382,257.953 3.60382,247.287 3.5,236.5C 3.5,224.833 3.5,213.167 3.5,201.5C 5.07551,202.075 6.74218,202.408 8.5,202.5C 14.3559,200.844 20.3559,200.178 26.5,200.5 Z"/></g>
<g><path style="opacity:1" fill="#555656" d="M 106.5,220.5 C 119.314,228.41 132.314,236.076 145.5,243.5C 147.135,242.954 148.801,242.62 150.5,242.5C 150.5,240.833 150.5,239.167 150.5,237.5C 151.5,237.5 152.5,237.5 153.5,237.5C 152.186,242.132 149.853,246.132 146.5,249.5C 144.545,250.323 142.545,250.49 140.5,250C 128.5,243 116.5,236 104.5,229C 103.748,228.329 103.414,227.496 103.5,226.5C 103.654,224.03 104.654,222.03 106.5,220.5 Z"/></g>
<g><path style="opacity:1" fill="#484849" d="M 103.5,226.5 C 103.414,227.496 103.748,228.329 104.5,229C 116.5,236 128.5,243 140.5,250C 142.545,250.49 144.545,250.323 146.5,249.5C 143.183,255.824 139.85,262.157 136.5,268.5C 132.767,273.308 129.767,278.641 127.5,284.5C 127.167,284.5 126.833,284.5 126.5,284.5C 124.08,284.292 121.747,284.626 119.5,285.5C 105.802,281.863 92.1349,277.196 78.5,271.5C 76.5567,271.787 75.2233,272.787 74.5,274.5C 74.4208,273.07 74.7542,271.736 75.5,270.5C 83.1097,259.61 89.943,248.277 96,236.5C 98.2834,232.9 100.783,229.566 103.5,226.5 Z"/></g>
<g><path style="opacity:1" fill="#515152" d="M 69.5,255.5 C 66.3019,262.049 62.6353,268.382 58.5,274.5C 57.8333,275.167 57.1667,275.833 56.5,276.5C 49.1833,271.839 41.5166,267.672 33.5,264C 26.7891,260.597 19.7891,258.097 12.5,256.5C 15.4776,249.896 19.4776,243.896 24.5,238.5C 25.5523,237.47 26.8857,236.803 28.5,236.5C 42.989,241.105 56.6557,247.438 69.5,255.5 Z"/></g>
<g><path style="opacity:1" fill="#152441" d="M 300.5,164.5 C 300.5,174.833 300.5,185.167 300.5,195.5C 300.198,210.881 300.531,226.215 301.5,241.5C 302.11,242.391 302.443,243.391 302.5,244.5C 298.904,245.244 295.904,247.077 293.5,250C 290.833,251.333 288.167,252.667 285.5,254C 284.833,255 284.167,256 283.5,257C 275.92,262.277 268.586,267.777 261.5,273.5C 258.51,269.479 255.844,265.146 253.5,260.5C 256.95,258.556 260.284,256.39 263.5,254C 263.167,253.667 262.833,253.333 262.5,253C 268.339,245.99 275.506,241.823 284,240.5C 285.514,238.234 287.681,237.068 290.5,237C 290.167,236.667 289.833,236.333 289.5,236C 292.171,234.82 294.504,233.987 296.5,233.5C 297.558,234.6 298.392,235.934 299,237.5C 299.168,212.997 299.668,188.663 300.5,164.5 Z"/></g>
<g><path style="opacity:1" fill="#365d92" d="M 211.5,217.5 C 213.195,219.535 214.528,221.868 215.5,224.5C 216.777,227.205 216.61,229.872 215,232.5C 202.479,243.763 188.479,252.763 173,259.5C 171.862,259.011 170.695,258.678 169.5,258.5C 167.568,254.139 165.235,249.972 162.5,246C 162.808,244.541 163.475,243.374 164.5,242.5C 164.5,244.5 164.5,246.5 164.5,248.5C 169.552,248.55 174.552,248.05 179.5,247C 184.27,244.596 189.27,242.93 194.5,242C 201.313,237.185 207.48,231.685 213,225.5C 213.045,222.78 212.545,220.114 211.5,217.5 Z"/></g>
<g><path style="opacity:1" fill="#214573" d="M 215.5,224.5 C 218.717,228.459 221.384,232.793 223.5,237.5C 223.489,239.017 222.823,240.184 221.5,241C 221.833,241.333 222.167,241.667 222.5,242C 210.874,251.142 198.874,259.642 186.5,267.5C 184.021,269.076 181.354,270.076 178.5,270.5C 175.515,266.548 172.515,262.548 169.5,258.5C 170.695,258.678 171.862,259.011 173,259.5C 188.479,252.763 202.479,243.763 215,232.5C 216.61,229.872 216.777,227.205 215.5,224.5 Z"/></g>
<g><path style="opacity:1" fill="#727273" d="M 12.5,256.5 C 19.7891,258.097 26.7891,260.597 33.5,264C 41.5166,267.672 49.1833,271.839 56.5,276.5C 55.6167,279.704 53.9501,282.371 51.5,284.5C 37.5644,276.198 22.8978,269.532 7.5,264.5C 8.77865,261.562 10.4453,258.896 12.5,256.5 Z"/></g>
<g><path style="opacity:1" fill="#0e2d54" d="M 223.5,237.5 C 225.687,240.739 227.687,244.072 229.5,247.5C 229.489,249.017 228.823,250.184 227.5,251C 213.906,260.417 199.906,269.251 185.5,277.5C 184.472,275.42 183.138,275.086 181.5,276.5C 179.654,274.97 178.654,272.97 178.5,270.5C 181.354,270.076 184.021,269.076 186.5,267.5C 198.874,259.642 210.874,251.142 222.5,242C 222.167,241.667 221.833,241.333 221.5,241C 222.823,240.184 223.489,239.017 223.5,237.5 Z"/></g>
<g><path style="opacity:1" fill="#243e60" d="M 302.5,244.5 C 302.5,248.167 302.5,251.833 302.5,255.5C 291.377,263.449 280.377,271.616 269.5,280C 268.477,282.774 268.477,285.607 269.5,288.5C 266.839,283.534 264.172,278.534 261.5,273.5C 268.586,267.777 275.92,262.277 283.5,257C 284.167,256 284.833,255 285.5,254C 288.167,252.667 290.833,251.333 293.5,250C 295.904,247.077 298.904,245.244 302.5,244.5 Z"/></g>
<g><path style="opacity:1" fill="#8f9091" d="M 7.5,264.5 C 22.8978,269.532 37.5644,276.198 51.5,284.5C 49.3655,288.87 47.0321,293.203 44.5,297.5C 44.719,296.325 44.3857,295.325 43.5,294.5C 40.143,291.315 36.4763,288.482 32.5,286C 23.0142,281.253 13.3475,277.086 3.5,273.5C 3.5,271.833 3.5,270.167 3.5,268.5C 5.19416,267.473 6.5275,266.139 7.5,264.5 Z"/></g>
<g><path style="opacity:1" fill="#5a5a5b" d="M 126.5,284.5 C 124.346,288.994 122.012,293.327 119.5,297.5C 117.649,300.372 115.983,303.372 114.5,306.5C 114.67,305.178 114.337,304.011 113.5,303C 98.6773,296.671 83.6773,290.838 68.5,285.5C 68.9707,283.421 69.6373,281.421 70.5,279.5C 72.0737,278.016 73.407,276.349 74.5,274.5C 75.2233,272.787 76.5567,271.787 78.5,271.5C 92.1349,277.196 105.802,281.863 119.5,285.5C 121.747,284.626 124.08,284.292 126.5,284.5 Z"/></g>
<g><path style="opacity:1" fill="#3b5a82" d="M 302.5,255.5 C 302.5,258.5 302.5,261.5 302.5,264.5C 293.753,270.728 285.086,277.228 276.5,284C 273.679,286.141 272.346,288.975 272.5,292.5C 272.167,292.5 271.833,292.5 271.5,292.5C 271.011,291.005 270.345,289.671 269.5,288.5C 268.477,285.607 268.477,282.774 269.5,280C 280.377,271.616 291.377,263.449 302.5,255.5 Z"/></g>
<g><path style="opacity:1" fill="#750c54" d="M 301.5,241.5 C 303.27,250.465 304.437,259.798 305,269.5C 305.915,270.328 306.581,271.328 307,272.5C 307.333,272.167 307.667,271.833 308,271.5C 312.335,276.332 317.168,280.665 322.5,284.5C 323.057,282.668 324.057,281.335 325.5,280.5C 323.711,287.751 319.711,293.418 313.5,297.5C 295.704,307.519 278.037,317.519 260.5,327.5C 260.5,326.5 260.5,325.5 260.5,324.5C 257.049,323.745 251.549,323.412 244,323.5C 237.5,323.667 231,323.833 224.5,324C 222.975,325.009 221.308,325.509 219.5,325.5C 232.701,318.139 245.701,310.305 258.5,302C 259.448,301.517 260.448,301.351 261.5,301.5C 261.5,300.167 261.5,298.833 261.5,297.5C 265.076,296.243 268.409,294.576 271.5,292.5C 271.833,292.5 272.167,292.5 272.5,292.5C 274.734,292.62 276.901,292.287 279,291.5C 286.042,286.723 293.209,282.057 300.5,277.5C 302.281,273.384 302.947,269.051 302.5,264.5C 302.5,261.5 302.5,258.5 302.5,255.5C 302.5,251.833 302.5,248.167 302.5,244.5C 302.443,243.391 302.11,242.391 301.5,241.5 Z"/></g>
<g><path style="opacity:1" fill="#071e3b" d="M 229.5,247.5 C 233.522,253.848 237.522,260.181 241.5,266.5C 241.33,267.822 241.663,268.989 242.5,270C 241.636,271.137 240.636,272.47 239.5,274C 230.583,277.905 222.416,283.072 215,289.5C 214.667,289.167 214.333,288.833 214,288.5C 213.716,290.886 212.716,291.552 211,290.5C 205.414,293.726 200.581,297.059 196.5,300.5C 195.857,298.924 194.857,297.59 193.5,296.5C 191.373,291.57 188.873,286.903 186,282.5C 184.483,280.76 182.983,279.094 181.5,277.5C 181.5,277.167 181.5,276.833 181.5,276.5C 183.138,275.086 184.472,275.42 185.5,277.5C 199.906,269.251 213.906,260.417 227.5,251C 228.823,250.184 229.489,249.017 229.5,247.5 Z"/></g>
<g><path style="opacity:1" fill="#5373a3" d="M 302.5,264.5 C 302.947,269.051 302.281,273.384 300.5,277.5C 293.209,282.057 286.042,286.723 279,291.5C 276.901,292.287 274.734,292.62 272.5,292.5C 272.346,288.975 273.679,286.141 276.5,284C 285.086,277.228 293.753,270.728 302.5,264.5 Z"/></g>
<g><path style="opacity:1" fill="#042025" d="M 136.5,268.5 C 136.5,269.5 136.5,270.5 136.5,271.5C 145.112,273.564 153.779,275.397 162.5,277C 168.551,277.208 174.551,277.708 180.5,278.5C 181.107,278.376 181.44,278.043 181.5,277.5C 182.983,279.094 184.483,280.76 186,282.5C 188.873,286.903 191.373,291.57 193.5,296.5C 186.476,296.392 179.476,295.892 172.5,295C 157.208,293.003 141.875,290.669 126.5,288C 127.337,286.989 127.67,285.822 127.5,284.5C 129.767,278.641 132.767,273.308 136.5,268.5 Z"/></g>
<g><path style="opacity:0.921" fill="#b0b1b3" d="M 3.5,273.5 C 13.3475,277.086 23.0142,281.253 32.5,286C 36.4763,288.482 40.143,291.315 43.5,294.5C 44.3857,295.325 44.719,296.325 44.5,297.5C 42.5965,301.519 40.2631,305.186 37.5,308.5C 29.6034,303.965 21.6034,299.465 13.5,295C 6.11806,289.901 2.4514,282.901 2.5,274C 2.72845,273.601 3.06178,273.435 3.5,273.5 Z"/></g>
<g><path style="opacity:1" fill="#0f2642" d="M 241.5,266.5 C 243.964,272.09 246.964,277.423 250.5,282.5C 246.559,284.14 242.892,286.306 239.5,289C 237.564,289.813 235.564,290.313 233.5,290.5C 233.719,291.675 233.386,292.675 232.5,293.5C 223.301,299.265 213.968,304.765 204.5,310C 203.663,311.011 203.33,312.178 203.5,313.5C 202.833,313.5 202.5,313.167 202.5,312.5C 201.041,308.248 199.041,304.248 196.5,300.5C 200.581,297.059 205.414,293.726 211,290.5C 212.716,291.552 213.716,290.886 214,288.5C 214.333,288.833 214.667,289.167 215,289.5C 222.416,283.072 230.583,277.905 239.5,274C 240.636,272.47 241.636,271.137 242.5,270C 241.663,268.989 241.33,267.822 241.5,266.5 Z"/></g>
<g><path style="opacity:1" fill="#787879" d="M 68.5,285.5 C 83.6773,290.838 98.6773,296.671 113.5,303C 114.337,304.011 114.67,305.178 114.5,306.5C 113.167,308.833 111.833,311.167 110.5,313.5C 110.167,313.5 109.833,313.5 109.5,313.5C 105.054,310.774 100.387,308.274 95.5,306C 84.8975,301.527 74.2309,297.36 63.5,293.5C 64.1695,290.151 65.8361,287.484 68.5,285.5 Z"/></g>
<g><path style="opacity:0.971" fill="#174147" d="M 58.5,274.5 C 58.4142,275.496 58.7476,276.329 59.5,277C 63.2084,277.838 66.8751,278.671 70.5,279.5C 69.6373,281.421 68.9707,283.421 68.5,285.5C 65.8361,287.484 64.1695,290.151 63.5,293.5C 60.6058,297.175 57.9391,301.175 55.5,305.5C 54.6496,307.603 53.6496,309.603 52.5,311.5C 51.3604,313.045 50.3604,314.712 49.5,316.5C 45.4297,313.808 41.4297,311.142 37.5,308.5C 40.2631,305.186 42.5965,301.519 44.5,297.5C 47.0321,293.203 49.3655,288.87 51.5,284.5C 53.9501,282.371 55.6167,279.704 56.5,276.5C 57.1667,275.833 57.8333,275.167 58.5,274.5 Z"/></g>
<g><path style="opacity:1" fill="#8e8e90" d="M 63.5,293.5 C 74.2309,297.36 84.8975,301.527 95.5,306C 100.387,308.274 105.054,310.774 109.5,313.5C 108.213,316.406 107.213,319.406 106.5,322.5C 104.97,323.211 103.637,324.211 102.5,325.5C 102.586,324.504 102.252,323.671 101.5,323C 87.8664,315.35 73.8664,308.516 59.5,302.5C 58.3578,303.826 57.0245,304.826 55.5,305.5C 57.9391,301.175 60.6058,297.175 63.5,293.5 Z"/></g>
<g><path style="opacity:1" fill="#0a2e33" d="M 126.5,284.5 C 126.833,284.5 127.167,284.5 127.5,284.5C 127.67,285.822 127.337,286.989 126.5,288C 141.875,290.669 157.208,293.003 172.5,295C 179.476,295.892 186.476,296.392 193.5,296.5C 194.857,297.59 195.857,298.924 196.5,300.5C 199.041,304.248 201.041,308.248 202.5,312.5C 198.563,312.207 194.73,312.54 191,313.5C 189.055,312.137 186.888,311.303 184.5,311C 174.825,310.082 165.158,309.082 155.5,308C 151.981,306.393 148.481,305.893 145,306.5C 140.071,304.579 134.905,303.413 129.5,303C 125.974,301.163 122.64,299.33 119.5,297.5C 122.012,293.327 124.346,288.994 126.5,284.5 Z"/></g>
<g><path style="opacity:1" fill="#314d73" d="M 254.5,289.5 C 256.25,290.659 257.25,292.326 257.5,294.5C 241.543,303.809 225.877,313.476 210.5,323.5C 209.5,322.167 208.5,320.833 207.5,319.5C 207.369,318.624 207.702,317.957 208.5,317.5C 224.056,308.627 239.39,299.293 254.5,289.5 Z"/></g>
<g><path style="opacity:1" fill="#223c5e" d="M 250.5,282.5 C 252.195,284.535 253.528,286.868 254.5,289.5C 239.39,299.293 224.056,308.627 208.5,317.5C 207.702,317.957 207.369,318.624 207.5,319.5C 206.167,317.5 204.833,315.5 203.5,313.5C 203.33,312.178 203.663,311.011 204.5,310C 213.968,304.765 223.301,299.265 232.5,293.5C 233.386,292.675 233.719,291.675 233.5,290.5C 235.564,290.313 237.564,289.813 239.5,289C 242.892,286.306 246.559,284.14 250.5,282.5 Z"/></g>
<g><path style="opacity:1" fill="#afb0b2" d="M 102.5,325.5 C 101.389,328.856 99.7226,331.856 97.5,334.5C 97.2488,332.83 96.5822,331.33 95.5,330C 81.8333,323.5 68.1667,317 54.5,310.5C 53.8165,310.863 53.1499,311.196 52.5,311.5C 53.6496,309.603 54.6496,307.603 55.5,305.5C 57.0245,304.826 58.3578,303.826 59.5,302.5C 73.8664,308.516 87.8664,315.35 101.5,323C 102.252,323.671 102.586,324.504 102.5,325.5 Z"/></g>
<g><path style="opacity:1" fill="#bfc1c3" d="M 97.5,334.5 C 96.1673,337.497 94.8339,340.497 93.5,343.5C 78.6131,334.87 63.9464,325.87 49.5,316.5C 50.3604,314.712 51.3604,313.045 52.5,311.5C 53.1499,311.196 53.8165,310.863 54.5,310.5C 68.1667,317 81.8333,323.5 95.5,330C 96.5822,331.33 97.2488,332.83 97.5,334.5 Z"/></g>
<g><path style="opacity:1" fill="#19474e" d="M 109.5,313.5 C 109.833,313.5 110.167,313.5 110.5,313.5C 110.185,315.226 110.019,316.893 110,318.5C 110.414,318.043 110.914,317.709 111.5,317.5C 119.763,319.296 127.929,321.296 136,323.5C 136.561,322.978 137.228,322.645 138,322.5C 141.563,324.417 145.23,324.75 149,323.5C 167.984,326.271 187.151,327.938 206.5,328.5C 203.73,331.061 200.73,333.394 197.5,335.5C 189.864,339.495 182.197,343.495 174.5,347.5C 173.702,347.957 173.369,348.624 173.5,349.5C 170.571,350.912 167.738,352.579 165,354.5C 157.449,351.49 150.282,347.823 143.5,343.5C 131.476,336.186 119.143,329.186 106.5,322.5C 107.213,319.406 108.213,316.406 109.5,313.5 Z"/></g>
<g><path style="opacity:1" fill="#123f44" d="M 119.5,297.5 C 122.64,299.33 125.974,301.163 129.5,303C 134.905,303.413 140.071,304.579 145,306.5C 148.481,305.893 151.981,306.393 155.5,308C 165.158,309.082 174.825,310.082 184.5,311C 186.888,311.303 189.055,312.137 191,313.5C 194.73,312.54 198.563,312.207 202.5,312.5C 202.5,313.167 202.833,313.5 203.5,313.5C 204.833,315.5 206.167,317.5 207.5,319.5C 208.5,320.833 209.5,322.167 210.5,323.5C 210.5,324.833 210.5,326.167 210.5,327.5C 209.292,328.234 207.959,328.567 206.5,328.5C 187.151,327.938 167.984,326.271 149,323.5C 145.23,324.75 141.563,324.417 138,322.5C 137.228,322.645 136.561,322.978 136,323.5C 127.929,321.296 119.763,319.296 111.5,317.5C 110.914,317.709 110.414,318.043 110,318.5C 110.019,316.893 110.185,315.226 110.5,313.5C 111.833,311.167 113.167,308.833 114.5,306.5C 115.983,303.372 117.649,300.372 119.5,297.5 Z"/></g>
<g><path style="opacity:1" fill="#44628d" d="M 257.5,294.5 C 258.504,295.683 259.338,297.016 260,298.5C 260.383,297.944 260.883,297.611 261.5,297.5C 261.5,298.833 261.5,300.167 261.5,301.5C 260.448,301.351 259.448,301.517 258.5,302C 245.701,310.305 232.701,318.139 219.5,325.5C 216.837,327.835 213.837,328.502 210.5,327.5C 210.5,326.167 210.5,324.833 210.5,323.5C 225.877,313.476 241.543,303.809 257.5,294.5 Z"/></g>
<g><path style="opacity:0.999" fill="#8f1868" d="M 260.5,327.5 C 252.454,332.858 244.121,337.858 235.5,342.5C 237.163,340.467 239.163,338.634 241.5,337C 226.794,335.689 212.127,335.189 197.5,335.5C 200.73,333.394 203.73,331.061 206.5,328.5C 207.959,328.567 209.292,328.234 210.5,327.5C 213.837,328.502 216.837,327.835 219.5,325.5C 221.308,325.509 222.975,325.009 224.5,324C 231,323.833 237.5,323.667 244,323.5C 251.549,323.412 257.049,323.745 260.5,324.5C 260.5,325.5 260.5,326.5 260.5,327.5 Z"/></g>
<g><path style="opacity:0.992" fill="#ad2680" d="M 106.5,322.5 C 119.143,329.186 131.476,336.186 143.5,343.5C 129.453,343.429 115.787,343.096 102.5,342.5C 100.885,343.154 99.2182,343.654 97.5,344C 99.4257,344.422 100.426,345.589 100.5,347.5C 97.9264,346.594 95.593,345.261 93.5,343.5C 94.8339,340.497 96.1673,337.497 97.5,334.5C 99.7226,331.856 101.389,328.856 102.5,325.5C 103.637,324.211 104.97,323.211 106.5,322.5 Z"/></g>
<g><path style="opacity:1" fill="#b72988" d="M 197.5,335.5 C 212.127,335.189 226.794,335.689 241.5,337C 239.163,338.634 237.163,340.467 235.5,342.5C 228.175,346.83 220.841,351.163 213.5,355.5C 213.5,354.5 213.5,353.5 213.5,352.5C 214.675,352.719 215.675,352.386 216.5,351.5C 202.205,350.029 187.872,349.363 173.5,349.5C 173.369,348.624 173.702,347.957 174.5,347.5C 182.197,343.495 189.864,339.495 197.5,335.5 Z"/></g>
<g><path style="opacity:0.999" fill="#d536a0" d="M 143.5,343.5 C 150.282,347.823 157.449,351.49 165,354.5C 167.738,352.579 170.571,350.912 173.5,349.5C 187.872,349.363 202.205,350.029 216.5,351.5C 215.675,352.386 214.675,352.719 213.5,352.5C 213.5,353.5 213.5,354.5 213.5,355.5C 210.429,357.898 207.095,359.898 203.5,361.5C 201.973,361.427 200.973,362.094 200.5,363.5C 192.93,367.731 185.597,372.231 178.5,377C 173.42,378.917 168.254,380.417 163,381.5C 158.496,380.332 153.996,379.165 149.5,378C 132.734,368.296 116.401,358.13 100.5,347.5C 100.426,345.589 99.4257,344.422 97.5,344C 99.2182,343.654 100.885,343.154 102.5,342.5C 115.787,343.096 129.453,343.429 143.5,343.5 Z"/></g>
<g><path style="opacity:0.004" fill="#181c1c" d="M 203.5,361.5 C 203.027,362.906 202.027,363.573 200.5,363.5C 200.973,362.094 201.973,361.427 203.5,361.5 Z"/></g>
</svg>
